<svg width="250" height="84" viewBox="0 0 250 84" fill="none" xmlns="http://www.w3.org/2000/svg">
<path d="M55.5735 30.0235C52.3131 27.9928 48.5368 26.9439 44.6961 27.0023C40.8554 27.0607 37.1128 28.2238 33.9155 30.3526C30.7183 32.4815 28.2017 35.486 26.6666 39.007C25.1315 42.5281 24.6428 46.4167 25.259 50.2081L34.1148 48.7689C33.775 46.6784 34.0445 44.5342 34.891 42.5927C35.7374 40.6512 37.1251 38.9945 38.888 37.8206C40.651 36.6468 42.7147 36.0054 44.8324 35.9732C46.9502 35.9411 49.0324 36.5194 50.8302 37.6391L55.5735 30.0235Z" fill="#FF5722"/>
<path d="M64.7061 43.7421C64.2825 41.15 63.3524 38.6668 61.9691 36.4342C60.5858 34.2016 58.1324 32.0333 56 30.5L51.4061 38.0143C52.5819 38.8598 53.5797 39.9285 54.3424 41.1596C55.1052 42.3907 55.7664 44.0707 56 45.5L64.7061 43.7421Z" fill="#FF5722"/>
<path d="M25.5 51C26.2201 55.647 28.5155 60.1794 32.0544 63.2761C35.5933 66.3728 40.2985 67.9028 45 68L45 59C42.4076 58.9464 39.914 58.2317 37.9627 56.5241C36.0113 54.8166 34.8971 52.0624 34.5 49.5L25.5 51Z" fill="#FF5722"/>
<path d="M46.0273 68.1068C48.8651 67.9789 51.6431 67.248 54.1763 65.9628C56.7095 64.6775 58.9399 62.8673 60.719 60.6527C62.498 58.4382 63.7849 55.8701 64.494 53.1193C65.203 50.3686 65.318 47.4984 64.8312 44.6998L55.992 46.2372C56.2604 47.7804 56.197 49.3631 55.806 50.8798C55.415 52.3966 54.7054 53.8126 53.7245 55.0337C52.7435 56.2549 51.5137 57.253 50.1168 57.9617C48.72 58.6704 47.5921 58.9295 46.0273 59L46.0273 68.1068Z" fill="#FF5722"/>
<path d="M37.0075 13.2463C35.5384 17.5097 30.8906 19.7747 26.6263 18.3053C22.3621 16.8358 20.0962 12.1885 21.5653 7.9251C23.0344 3.66172 27.6822 1.39677 31.9465 2.86618C36.2107 4.3356 38.4766 8.98295 37.0075 13.2463ZM25.7209 9.35707C25.0424 11.3259 26.0888 13.472 28.058 14.1505C30.0272 14.8291 32.1735 13.7832 32.852 11.8144C33.5304 9.84558 32.484 7.69947 30.5148 7.0209C28.5456 6.34234 26.3993 7.38827 25.7209 9.35707Z" fill="#FF5722"/>
<line y1="-1" x2="21.6631" y2="-1" transform="matrix(0.45215 0.891942 -0.92517 0.379552 30.8895 15.8006)" stroke="#FF5722" stroke-width="2"/>
<path d="M21.4021 68.3711C25.3698 68.4313 28.5375 71.696 28.4773 75.663C28.4171 79.63 25.1519 82.7971 21.1842 82.7369C17.2165 82.6767 14.0488 79.412 14.109 75.445C14.1691 71.478 17.4344 68.3109 21.4021 68.3711ZM21.2428 78.871C23.0751 78.8988 24.5829 77.4363 24.6107 75.6043C24.6385 73.7724 23.1757 72.2648 21.3435 72.237C19.5112 72.2092 18.0033 73.6717 17.9755 75.5037C17.9478 77.3356 19.4106 78.8432 21.2428 78.871Z" fill="#FF5722"/>
<line y1="-1" x2="19.0558" y2="-1" transform="matrix(0.706785 -0.707429 0.648788 0.760969 25.5324 72.855)" stroke="#FF5722" stroke-width="2"/>
<path d="M15.7301 38.497C17.3211 41.7979 15.936 45.7632 12.6363 47.3537C9.33657 48.9442 5.37179 47.5576 3.78071 44.2566C2.18964 40.9557 3.57476 36.9904 6.87448 35.3999C10.1742 33.8094 14.139 35.196 15.7301 38.497ZM5.61664 43.3717C6.71881 45.6583 9.46527 46.6189 11.751 45.5171C14.0368 44.4154 14.9963 41.6685 13.8941 39.3819C12.792 37.0953 10.0455 36.1347 7.75974 37.2365C5.47398 38.3382 4.51448 41.0851 5.61664 43.3717Z" fill="#FF5722"/>
<line y1="-0.75" x2="17.5935" y2="-0.75" transform="matrix(0.949038 0.315161 -0.389869 0.92087 14.5612 43.3458)" stroke="#FF5722" stroke-width="1.5"/>
<path d="M70.2098 64.1774C68.7614 60.8114 70.3149 56.9089 73.6796 55.4611C77.0444 54.0132 80.9462 55.5681 82.3946 58.9342C83.8431 62.3002 82.2896 66.2026 78.9248 67.6504C75.5601 69.0983 71.6583 67.5434 70.2098 64.1774ZM80.5225 59.7397C79.5192 57.4081 76.8163 56.3309 74.4855 57.3339C72.1547 58.3368 71.0786 61.0401 72.0819 63.3718C73.0853 65.7035 75.7881 66.7806 78.1189 65.7776C80.4498 64.7747 81.5259 62.0714 80.5225 59.7397Z" fill="#FF5722"/>
<line y1="-0.75" x2="17.5935" y2="-0.75" transform="matrix(-0.934688 -0.355469 0.428904 -0.90335 71.5851 59.3829)" stroke="#FF5722" stroke-width="1.5"/>
<path d="M41.2803 44.4937L38.6611 46.8403L41.2803 49.1343H39.6323L37.5098 47.271C37.3779 47.1626 37.312 47.019 37.312 46.8403C37.312 46.7583 37.3281 46.6807 37.3604 46.6074C37.3955 46.5342 37.4424 46.4712 37.501 46.4185L39.6499 44.4937H41.2803ZM47.3052 43.6982L43.3281 50H42.1021L46.0835 43.6982H47.3052ZM49.7354 44.4937L51.8887 46.4185C51.9473 46.4712 51.9927 46.5342 52.0249 46.6074C52.0601 46.6807 52.0776 46.7583 52.0776 46.8403C52.0776 46.9253 52.0601 47.0059 52.0249 47.082C51.9897 47.1553 51.9414 47.2183 51.8799 47.271L49.7529 49.1343H48.1094L50.7285 46.8403L48.1094 44.4937H49.7354Z" fill="#FF5722"/>
<path d="M104.816 54H93.8242C93.543 54 93.2383 53.9688 92.9102 53.9062C92.5898 53.8359 92.2695 53.7305 91.9492 53.5898C91.6367 53.4492 91.3359 53.2695 91.0469 53.0508C90.7578 52.8242 90.5 52.5547 90.2734 52.2422C90.0547 51.9219 89.8789 51.5547 89.7461 51.1406C89.6133 50.7188 89.5469 50.2461 89.5469 49.7227V41.4727C89.5469 41.1914 89.5781 40.8906 89.6406 40.5703C89.7109 40.2422 89.8164 39.9219 89.957 39.6094C90.0977 39.2891 90.2812 38.9844 90.5078 38.6953C90.7344 38.4062 91.0039 38.1523 91.3164 37.9336C91.6367 37.707 92.0039 37.5273 92.418 37.3945C92.832 37.2617 93.3008 37.1953 93.8242 37.1953H104.816V40.2422H93.8242C93.4258 40.2422 93.1211 40.3477 92.9102 40.5586C92.6992 40.7695 92.5938 41.082 92.5938 41.4961V49.7227C92.5938 50.1133 92.6992 50.418 92.9102 50.6367C93.1289 50.8477 93.4336 50.9531 93.8242 50.9531H104.816V54ZM125.078 47.2031C125.078 48.2266 124.902 49.168 124.551 50.0273C124.199 50.8867 123.711 51.6289 123.086 52.2539C122.461 52.8789 121.719 53.3672 120.859 53.7188C120.008 54.0625 119.078 54.2344 118.07 54.2344H113.945C112.938 54.2344 112.004 54.0625 111.145 53.7188C110.285 53.3672 109.543 52.8789 108.918 52.2539C108.293 51.6289 107.801 50.8867 107.441 50.0273C107.09 49.168 106.914 48.2266 106.914 47.2031V43.9922C106.914 42.9766 107.09 42.0391 107.441 41.1797C107.801 40.3125 108.293 39.5703 108.918 38.9531C109.543 38.3281 110.285 37.8398 111.145 37.4883C112.004 37.1367 112.938 36.9609 113.945 36.9609H118.07C119.078 36.9609 120.008 37.1367 120.859 37.4883C121.719 37.8398 122.461 38.3281 123.086 38.9531C123.711 39.5703 124.199 40.3125 124.551 41.1797C124.902 42.0391 125.078 42.9766 125.078 43.9922V47.2031ZM122.031 43.9922C122.031 43.3906 121.934 42.8477 121.738 42.3633C121.551 41.8711 121.281 41.4531 120.93 41.1094C120.586 40.7578 120.168 40.4883 119.676 40.3008C119.191 40.1055 118.656 40.0078 118.07 40.0078H113.945C113.352 40.0078 112.809 40.1055 112.316 40.3008C111.832 40.4883 111.414 40.7578 111.062 41.1094C110.711 41.4531 110.438 41.8711 110.242 42.3633C110.055 42.8477 109.961 43.3906 109.961 43.9922V47.2031C109.961 47.8047 110.055 48.3516 110.242 48.8438C110.438 49.3281 110.711 49.7461 111.062 50.0977C111.414 50.4414 111.832 50.7109 112.316 50.9062C112.809 51.0938 113.352 51.1875 113.945 51.1875H118.047C118.641 51.1875 119.18 51.0938 119.664 50.9062C120.156 50.7109 120.578 50.4414 120.93 50.0977C121.281 49.7461 121.551 49.3281 121.738 48.8438C121.934 48.3516 122.031 47.8047 122.031 47.2031V43.9922ZM144.859 46.9688C144.859 47.9922 144.68 48.9336 144.32 49.793C143.969 50.6523 143.48 51.3945 142.855 52.0195C142.23 52.6367 141.488 53.1211 140.629 53.4727C139.77 53.8242 138.836 54 137.828 54H129.602C129.383 54 129.18 53.9609 128.992 53.8828C128.805 53.8047 128.641 53.6992 128.5 53.5664C128.367 53.4258 128.262 53.2617 128.184 53.0742C128.105 52.8867 128.066 52.6836 128.066 52.4648V38.7305C128.066 38.5195 128.105 38.3203 128.184 38.1328C128.262 37.9453 128.367 37.7812 128.5 37.6406C128.641 37.5 128.805 37.3906 128.992 37.3125C129.18 37.2344 129.383 37.1953 129.602 37.1953H137.828C138.836 37.1953 139.77 37.3711 140.629 37.7227C141.488 38.0742 142.23 38.5625 142.855 39.1875C143.48 39.8047 143.969 40.5469 144.32 41.4141C144.68 42.2734 144.859 43.2109 144.859 44.2266V46.9688ZM141.812 44.2266C141.812 43.6328 141.715 43.0898 141.52 42.5977C141.332 42.1055 141.062 41.6875 140.711 41.3438C140.359 40.9922 139.938 40.7227 139.445 40.5352C138.961 40.3398 138.422 40.2422 137.828 40.2422H131.113V50.9531H137.828C138.422 50.9531 138.961 50.8594 139.445 50.6719C139.938 50.4766 140.359 50.207 140.711 49.8633C141.062 49.5117 141.332 49.0938 141.52 48.6094C141.715 48.1172 141.812 47.5703 141.812 46.9688V44.2266ZM161.664 47.1328H152.043V44.0625H161.664V47.1328ZM163.035 54H152.043C151.621 54 151.16 53.9258 150.66 53.7773C150.16 53.6289 149.695 53.3867 149.266 53.0508C148.844 52.707 148.488 52.2656 148.199 51.7266C147.918 51.1797 147.777 50.5117 147.777 49.7227V38.7305C147.777 38.5195 147.816 38.3203 147.895 38.1328C147.973 37.9453 148.078 37.7812 148.211 37.6406C148.352 37.5 148.516 37.3906 148.703 37.3125C148.891 37.2344 149.094 37.1953 149.312 37.1953H163.035V40.2422H150.824V49.7227C150.824 50.1211 150.93 50.4258 151.141 50.6367C151.352 50.8477 151.66 50.9531 152.066 50.9531H163.035V54ZM185.547 54H182.477V43.9922L177.074 53.4961C176.941 53.7383 176.754 53.9219 176.512 54.0469C176.277 54.1719 176.023 54.2344 175.75 54.2344C175.484 54.2344 175.234 54.1719 175 54.0469C174.773 53.9219 174.594 53.7383 174.461 53.4961L169.035 43.9922V54H165.988V38.4961C165.988 38.1445 166.09 37.832 166.293 37.5586C166.504 37.2852 166.777 37.1016 167.113 37.0078C167.277 36.9688 167.441 36.957 167.605 36.9727C167.77 36.9805 167.926 37.0156 168.074 37.0781C168.23 37.1328 168.371 37.2148 168.496 37.3242C168.621 37.4258 168.727 37.5508 168.812 37.6992L175.75 49.7578L182.688 37.6992C182.867 37.4023 183.113 37.1914 183.426 37.0664C183.746 36.9414 184.078 36.9219 184.422 37.0078C184.75 37.1016 185.02 37.2852 185.23 37.5586C185.441 37.832 185.547 38.1445 185.547 38.4961V54ZM208.656 54H205.586V43.9922L200.184 53.4961C200.051 53.7383 199.863 53.9219 199.621 54.0469C199.387 54.1719 199.133 54.2344 198.859 54.2344C198.594 54.2344 198.344 54.1719 198.109 54.0469C197.883 53.9219 197.703 53.7383 197.57 53.4961L192.145 43.9922V54H189.098V38.4961C189.098 38.1445 189.199 37.832 189.402 37.5586C189.613 37.2852 189.887 37.1016 190.223 37.0078C190.387 36.9688 190.551 36.957 190.715 36.9727C190.879 36.9805 191.035 37.0156 191.184 37.0781C191.34 37.1328 191.48 37.2148 191.605 37.3242C191.73 37.4258 191.836 37.5508 191.922 37.6992L198.859 49.7578L205.797 37.6992C205.977 37.4023 206.223 37.1914 206.535 37.0664C206.855 36.9414 207.188 36.9219 207.531 37.0078C207.859 37.1016 208.129 37.2852 208.34 37.5586C208.551 37.832 208.656 38.1445 208.656 38.4961V54ZM215.277 54H212.23V37.1953H215.277V54ZM234.027 40.2422H227.312V54H224.266V40.2422H217.539V37.1953H234.027V40.2422Z" fill="url(#paint0_linear_6_25)"/>
<defs>
<linearGradient id="paint0_linear_6_25" x1="88" y1="45.3333" x2="238.109" y2="47.3871" gradientUnits="userSpaceOnUse">
<stop stop-color="#FF5722"/>
<stop offset="0.9999" stop-color="#FDB703"/>
<stop offset="1" stop-color="#F5793B" stop-opacity="0"/>
</linearGradient>
</defs>
</svg>
